# xmcd
#
# Track frame offsets: 
#        150
#        14910
#        28550
#        52035
#        66467
#        79482
#        94680
#        142045
#
# Disc length: 2283 seconds
#
# Revision: 2
# Processed by: cddbd v1.5.2PL0 Copyright (c) Steve Scherf et al.
# Submitted via: ExactAudioCopy v0.99pb5
#
DISCID=7608e908
DTITLE=The Isley Brothers - Brother, Brother, Brother
DYEAR=1972
DGENRE=Soul
TTITLE0=Brother, Brother
TTITLE1=Put A Little Love In Your Heart
TTITLE2=Sweet Season - Keep On Walkin'
TTITLE3=Work To Do
TTITLE4=Pop That Thang
TTITLE5=Lay Away
TTITLE6=It's Too Late
TTITLE7=Love Put Me On The Corner
EXTD=An all time classic LP finally available on cd!!! Another must ha
EXTD=ve for any serious collector of classic soul/rhythm and blues! This
EXTD=1972 release includes the two hit singles, Pop That Thang, and L
EXTD=ay Away....as well as a smoking extended play cover of the Carole
EXTD=King classic, It's Too Late....
EXTT0=
EXTT1=
EXTT2=
EXTT3=
EXTT4=
EXTT5=
EXTT6=
EXTT7=
PLAYORDER=
